<svg version="1.1" viewBox="0.0 0.0 482.56692913385825 206.6745406824147" fill="none" stroke="none" stroke-linecap="square" stroke-miterlimit="10" xmlns:xlink="http://www.w3.org/1999/xlink" xmlns="http://www.w3.org/2000/svg"><clipPath id="p.0"><path d="m0 0l482.56693 0l0 206.67455l-482.56693 0l0 -206.67455z" clip-rule="nonzero"/></clipPath><g clip-path="url(#p.0)"><path fill="#000000" fill-opacity="0.0" d="m0 0l482.56693 0l0 206.67455l-482.56693 0z" fill-rule="evenodd"/><defs><linearGradient id="p.1" gradientUnits="userSpaceOnUse" gradientTransform="matrix(21.937635299176733 0.0 0.0 21.937635299176733 0.0 0.0)" spreadMethod="pad" x1="0.0" y1="9.35077347536244" x2="21.937635299176733" y2="9.35077347536244"><stop offset="0.0" stop-color="#0080ff"/><stop offset="0.8" stop-color="#65c1fc"/><stop offset="0.99999994" stop-color="#65c1fc" stop-opacity="0.0"/><stop offset="1.0" stop-color="#ffffff" stop-opacity="0.0"/></linearGradient></defs><path fill="url(#p.1)" d="m0 11.380826l0 0c0 -6.2854567 5.0953693 -11.380826 11.380826 -11.380826l458.4982 0c3.0183716 0 5.9131165 1.1990479 8.047455 3.3333669c2.1343079 2.1343188 3.333374 5.029077 3.333374 8.047459l0 182.37221c0 6.285446 -5.095398 11.380829 -11.380829 11.380829l-458.4982 0c-6.2854567 0 -11.380826 -5.0953827 -11.380826 -11.380829z" fill-rule="evenodd"/><path stroke="#4a86e8" stroke-width="1.0" stroke-linejoin="round" stroke-linecap="butt" d="m0 11.380826l0 0c0 -6.2854567 5.0953693 -11.380826 11.380826 -11.380826l458.4982 0c3.0183716 0 5.9131165 1.1990479 8.047455 3.3333669c2.1343079 2.1343188 3.333374 5.029077 3.333374 8.047459l0 182.37221c0 6.285446 -5.095398 11.380829 -11.380829 11.380829l-458.4982 0c-6.2854567 0 -11.380826 -5.0953827 -11.380826 -11.380829z" fill-rule="evenodd"/><path fill="#e0eded" d="m31.98958 149.22693q-2.84375 0 -4.78125 -1.9375q-1.9375 -1.9375 -1.9375 -4.78125l0 -87.5625q0 -2.96875 1.9375 -4.84375q1.9375 -1.875 4.78125 -1.875l23.406252 0q11.124996 0 20.234371 3.6875q9.125 3.671875 15.84375 10.46875q6.734375 6.796871 10.34375 15.984371q3.625 9.171875 3.625 20.296875q0 11.125 -3.625 20.375q-3.609375 9.234375 -10.34375 16.03125q-6.71875 6.78125 -15.84375 10.46875q-9.109375 3.6875 -20.234371 3.6875l-23.406252 0zm6.734377 -11.890625l16.671875 0q10.874996 0 19.203121 -4.984375q8.34375 -4.984375 13.125 -13.703125q4.796875 -8.734375 4.796875 -19.984375q0 -11.390625 -4.796875 -20.046875q-4.78125 -8.671875 -13.125 -13.578125q-8.328125 -4.921871 -19.203121 -4.921871l-16.671875 0l0 77.21875zm94.404465 11.890625q-2.84375 0 -4.71875 -1.9375q-1.875 -1.9375 -1.875 -4.78125l0 -87.5625q0 -2.84375 1.9375 -4.78125q1.9375 -1.9375 4.65625 -1.9375q2.84375 0 4.78125 1.9375q1.9375 1.9375 1.9375 4.78125l0 80.828125l46.828125 0q2.84375 0 4.78125 1.953125q1.9375 1.9375 1.9375 4.78125q0 2.84375 -1.9375 4.78125q-1.9375 1.9375 -4.78125 1.9375l-53.546875 0zm114.069 1.296875q-11.390625 0 -20.828125 -3.8125q-9.4375 -3.828125 -16.234375 -10.734375q-6.78125 -6.921875 -10.53125 -16.421875q-3.75 -9.515625 -3.75 -20.890625q0 -11.390625 3.75 -20.828125q3.75 -9.4375 10.53125 -16.359371q6.796875 -6.921875 16.234375 -10.734375q9.4375 -3.8125 20.828125 -3.8125q11.375 0 20.75 3.8125q9.375 3.8125 16.234375 10.734375q6.859375 6.921871 10.609375 16.359371q3.75 9.4375 3.75 20.828125q0 11.375 -3.75 20.890625q-3.75 9.5 -10.609375 16.421875q-6.859375 6.90625 -16.234375 10.734375q-9.375 3.8125 -20.75 3.8125zm0 -12.15625q8.40625 0 15.453125 -3.03125q7.046875 -3.046875 12.21875 -8.40625q5.171875 -5.375 7.953125 -12.609375q2.78125 -7.25 2.78125 -15.65625q0 -8.40625 -2.78125 -15.640625q-2.78125 -7.25 -7.953125 -12.609375q-5.171875 -5.375 -12.21875 -8.343746q-7.046875 -2.984375 -15.453125 -2.984375q-8.40625 0 -15.46875 2.984375q-7.046875 2.9687462 -12.15625 8.343746q-5.09375 5.359375 -7.953125 12.609375q-2.84375 7.234375 -2.84375 15.640625q0 8.40625 2.84375 15.65625q2.859375 7.234375 7.953125 12.609375q5.109375 5.359375 12.15625 8.40625q7.0625 3.03125 15.46875 3.03125zm79.142365 10.859375q-2.84375 0 -4.78125 -1.9375q-1.9375 -1.9375 -1.9375 -4.78125l0 -87.5625q0 -2.96875 1.9375 -4.84375q1.9375 -1.875 4.78125 -1.875q3.875 0 5.953125 3.609375l40.484375 81.09375l-4.140625 0l39.4375 -81.09375q2.078125 -3.609375 5.953125 -3.609375q2.84375 0 4.78125 1.875q1.9375 1.875 1.9375 4.84375l0 87.5625q0 2.84375 -2.0 4.78125q-2.0 1.9375 -4.71875 1.9375q-2.84375 0 -4.78125 -1.9375q-1.9375 -1.9375 -1.9375 -4.78125l0 -68.9375l2.578125 -0.640625l-33.890625 69.046875q-2.1875 3.375 -5.8125 3.375q-4.265625 0 -6.203125 -4.015625l-33.5 -67.125l2.59375 -0.640625l0 68.9375q0 2.84375 -1.953125 4.78125q-1.9375 1.9375 -4.78125 1.9375z" fill-rule="nonzero"/></g></svg>